<svg xmlns="http://www.w3.org/2000/svg" xmlns:xlink="http://www.w3.org/1999/xlink" width="840" height="561.04"><rect width="840" height="561.04" rx="0" ry="0" class="a"></rect><svg height="521.04" viewBox="0 0 80 52.104" width="800" x="20" xmlns="http://www.w3.org/2000/svg" xmlns:xlink="http://www.w3.org/1999/xlink" y="20"><style>.a{fill:rgb(40,45,53)}.b{font-family:'Fira Code',Monaco,Consolas,Menlo,'Bitstream Vera Sans Mono','Powerline Symbols',monospace}.c{fill:rgb(102,194,205);white-space:pre}.d{fill:rgb(185,192,203);font-weight:bold;white-space:pre}.e{fill:transparent}.f{fill:rgb(232,131,136);white-space:pre}.g{fill:rgb(185,192,203);white-space:pre}.h{fill:rgb(168,204,140);white-space:pre}</style><g font-family="&#x27;Fira Code&#x27;,Monaco,Consolas,Menlo,&#x27;Bitstream Vera Sans Mono&#x27;,&#x27;Powerline Symbols&#x27;,monospace" font-size="1.67" class="b"><defs><symbol id="1"><text font-size="1.67" x="0" y="1.67" class="c">──</text><text font-size="1.67" x="3.006" y="1.67" class="d">Possible</text><text font-size="1.67" x="12.024" y="1.67" class="d">spelling</text><text font-size="1.67" x="21.041999999999998" y="1.67" class="d">mistake</text><text font-size="1.67" x="29.058" y="1.67" class="d">found.</text><text font-size="1.67" x="36.071999999999996" y="1.67" class="c">────────────────────────────────────────────</text></symbol><symbol id="a"><rect height="24" width="80" x="0" y="0" class="e"></rect></symbol></defs><rect height="52.104" width="80" class="a"></rect><svg x="0" y="0" width="80"><svg x="0"><use xlink:href="#a"></use><text font-size="1.67" x="0" y="3.8409999999999997" class="c">──</text><text font-size="1.67" x="3.006" y="3.8409999999999997" class="d">A</text><text font-size="1.67" x="5.01" y="3.8409999999999997" class="d">verb</text><text font-size="1.67" x="10.02" y="3.8409999999999997" class="d">may</text><text font-size="1.67" x="14.027999999999999" y="3.8409999999999997" class="d">be</text><text font-size="1.67" x="17.034" y="3.8409999999999997" class="d">missing.</text><text font-size="1.67" x="26.052" y="3.8409999999999997" class="c">──────────────────────────────────────────────────────</text><text font-size="1.67" x="0" y="6.012" class="f">✖</text><text font-size="1.67" x="2.004" y="6.012" class="f">This</text><text font-size="1.67" x="7.013999999999999" y="6.012" class="g">an</text><text font-size="1.67" x="10.02" y="6.012" class="g">title</text><text font-size="1.67" x="16.032" y="6.012" class="g">mispeling</text><text font-size="1.67" x="26.052" y="6.012" class="g">some</text><text font-size="1.67" x="31.061999999999998" y="6.012" class="g">words</text><text font-size="1.67" x="0" y="8.183" class="h">✔</text><text font-size="1.67" x="2.004" y="8.183" class="h">This</text><text font-size="1.67" x="7.013999999999999" y="8.183" class="h">is</text><text font-size="1.67" x="10.02" y="8.183" class="g">an</text><text font-size="1.67" x="13.026" y="8.183" class="g">title</text><text font-size="1.67" x="19.037999999999997" y="8.183" class="g">mispeling</text><text font-size="1.67" x="29.058" y="8.183" class="g">some</text><text font-size="1.67" x="34.068" y="8.183" class="g">words</text><text font-size="1.67" x="0" y="12.525" class="c">──</text><text font-size="1.67" x="3.006" y="12.525" class="d">Use</text><text font-size="1.67" x="7.013999999999999" y="12.525" class="d">“a”</text><text font-size="1.67" x="11.021999999999998" y="12.525" class="d">instead</text><text font-size="1.67" x="19.037999999999997" y="12.525" class="d">of</text><text font-size="1.67" x="22.043999999999997" y="12.525" class="d">‘an’</text><text font-size="1.67" x="27.054" y="12.525" class="d">if</text><text font-size="1.67" x="30.059999999999995" y="12.525" class="d">the</text><text font-size="1.67" x="34.068" y="12.525" class="d">following</text><text font-size="1.67" x="44.087999999999994" y="12.525" class="d">word</text><text font-size="1.67" x="49.098" y="12.525" class="d">doesn’t</text><text font-size="1.67" x="57.114" y="12.525" class="d">start</text><text font-size="1.67" x="63.12599999999999" y="12.525" class="d">with</text><text font-size="1.67" x="68.136" y="12.525" class="d">a</text><text font-size="1.67" x="70.13999999999999" y="12.525" class="d">vowel</text><text font-size="1.67" x="76.15199999999999" y="12.525" class="d">soun</text><text font-size="1.67" x="0" y="14.696" class="f">✖</text><text font-size="1.67" x="2.004" y="14.696" class="g">This</text><text font-size="1.67" x="7.013999999999999" y="14.696" class="f">an</text><text font-size="1.67" x="10.02" y="14.696" class="g">title</text><text font-size="1.67" x="16.032" y="14.696" class="g">mispeling</text><text font-size="1.67" x="26.052" y="14.696" class="g">some</text><text font-size="1.67" x="31.061999999999998" y="14.696" class="g">words</text><text font-size="1.67" x="0" y="16.866999999999997" class="h">✔</text><text font-size="1.67" x="2.004" y="16.866999999999997" class="g">This</text><text font-size="1.67" x="7.013999999999999" y="16.866999999999997" class="h">a</text><text font-size="1.67" x="9.017999999999999" y="16.866999999999997" class="g">title</text><text font-size="1.67" x="15.029999999999998" y="16.866999999999997" class="g">mispeling</text><text font-size="1.67" x="25.05" y="16.866999999999997" class="g">some</text><text font-size="1.67" x="30.059999999999995" y="16.866999999999997" class="g">words</text><use xlink:href="#1" y="19.539"></use><text font-size="1.67" x="0" y="23.380000000000003" class="f">✖</text><text font-size="1.67" x="2.004" y="23.380000000000003" class="g">This</text><text font-size="1.67" x="7.013999999999999" y="23.380000000000003" class="g">an</text><text font-size="1.67" x="10.02" y="23.380000000000003" class="g">title</text><text font-size="1.67" x="16.032" y="23.380000000000003" class="f">mispeling</text><text font-size="1.67" x="26.052" y="23.380000000000003" class="g">some</text><text font-size="1.67" x="31.061999999999998" y="23.380000000000003" class="g">words</text><text font-size="1.67" x="0" y="25.550999999999995" class="h">✔</text><text font-size="1.67" x="2.004" y="25.550999999999995" class="g">This</text><text font-size="1.67" x="7.013999999999999" y="25.550999999999995" class="g">an</text><text font-size="1.67" x="10.02" y="25.550999999999995" class="g">title</text><text font-size="1.67" x="16.032" y="25.550999999999995" class="h">misspelling</text><text font-size="1.67" x="28.055999999999997" y="25.550999999999995" class="g">some</text><text font-size="1.67" x="33.065999999999995" y="25.550999999999995" class="g">words</text><use xlink:href="#1" y="28.223000000000003"></use><text font-size="1.67" x="0" y="32.064" class="f">✖</text><text font-size="1.67" x="3.006" y="32.064" class="g">The</text><text font-size="1.67" x="7.013999999999999" y="32.064" class="g">subtitle</text><text font-size="1.67" x="16.032" y="32.064" class="g">has</text><text font-size="1.67" x="20.04" y="32.064" class="g">also</text><text font-size="1.67" x="25.05" y="32.064" class="f">erors</text><text font-size="1.67" x="31.061999999999998" y="32.064" class="g">,like</text><text font-size="1.67" x="0" y="34.235" class="h">✔</text><text font-size="1.67" x="3.006" y="34.235" class="g">The</text><text font-size="1.67" x="7.013999999999999" y="34.235" class="g">subtitle</text><text font-size="1.67" x="16.032" y="34.235" class="g">has</text><text font-size="1.67" x="20.04" y="34.235" class="g">also</text><text font-size="1.67" x="25.05" y="34.235" class="h">errors</text><text font-size="1.67" x="32.064" y="34.235" class="g">,like</text><text font-size="1.67" x="0" y="38.577000000000005" class="c">──</text><text font-size="1.67" x="3.006" y="38.577000000000005" class="d">Put</text><text font-size="1.67" x="7.013999999999999" y="38.577000000000005" class="d">a</text><text font-size="1.67" x="9.017999999999999" y="38.577000000000005" class="d">space</text><text font-size="1.67" x="15.029999999999998" y="38.577000000000005" class="d">after</text><text font-size="1.67" x="21.041999999999998" y="38.577000000000005" class="d">the</text><text font-size="1.67" x="25.05" y="38.577000000000005" class="d">comma,</text><text font-size="1.67" x="32.064" y="38.577000000000005" class="d">but</text><text font-size="1.67" x="36.071999999999996" y="38.577000000000005" class="d">not</text><text font-size="1.67" x="40.08" y="38.577000000000005" class="d">before</text><text font-size="1.67" x="47.093999999999994" y="38.577000000000005" class="d">the</text><text font-size="1.67" x="51.102" y="38.577000000000005" class="d">comma.</text><text font-size="1.67" x="58.116" y="38.577000000000005" class="c">──────────────────────</text><text font-size="1.67" x="0" y="40.748000000000005" class="f">✖</text><text font-size="1.67" x="3.006" y="40.748000000000005" class="g">The</text><text font-size="1.67" x="7.013999999999999" y="40.748000000000005" class="g">subtitle</text><text font-size="1.67" x="16.032" y="40.748000000000005" class="g">has</text><text font-size="1.67" x="20.04" y="40.748000000000005" class="g">also</text><text font-size="1.67" x="25.05" y="40.748000000000005" class="g">erors</text><text font-size="1.67" x="31.061999999999998" y="40.748000000000005" class="f">,</text><text font-size="1.67" x="32.064" y="40.748000000000005" class="g">like</text><text font-size="1.67" x="0" y="42.919" class="h">✔</text><text font-size="1.67" x="3.006" y="42.919" class="g">The</text><text font-size="1.67" x="7.013999999999999" y="42.919" class="g">subtitle</text><text font-size="1.67" x="16.032" y="42.919" class="g">has</text><text font-size="1.67" x="20.04" y="42.919" class="g">also</text><text font-size="1.67" x="25.05" y="42.919" class="g">erors</text><text font-size="1.67" x="30.059999999999995" y="42.919" class="h">,</text><text font-size="1.67" x="32.064" y="42.919" class="g">like</text><use xlink:href="#1" y="45.591"></use><text font-size="1.67" x="0" y="49.431999999999995" class="f">✖</text><text font-size="1.67" x="3.006" y="49.431999999999995" class="f">Firstannotation</text><text font-size="1.67" x="0" y="51.603" class="h">✔</text><text font-size="1.67" x="3.006" y="51.603" class="h">First</text><text font-size="1.67" x="9.017999999999999" y="51.603" class="h">annotation</text></svg></svg></g></svg></svg>